# xmcd
#
# Track frame offsets: 
#        150
#        15275
#        27827
#        39811
#        52700
#        65737
#        80235
#        94049
#        106314
#        120907
#        134975
#        147038
#        158573
#        170884
#        182900
#        195223
#        206012
#        217967
#        230528
#        242949
#        253004
#        263435
#        275839
#        286814
#        297128
#        307777
#        318403
#
# Disc length: 4393 seconds
#
# Revision: 2
# Processed by: cddbd v1.5.2PL0 Copyright (c) Steve Scherf et al.
# Submitted via: ExactAudioCopy v1.3
#
DISCID=7a11271b
DTITLE=Lightnin' Hopkins - Texas Thunderbolt
DYEAR=2007
DGENRE=Blues
TTITLE0=Ain't It a Shame
TTITLE1=Crazy 'Bout My Baby
TTITLE2=Highway Blues
TTITLE3=I'm Wild About You Baby
TTITLE4=Bad Things on My Mind
TTITLE5=The War Is Over
TTITLE6=Policy Game
TTITLE7=Merry Christmas
TTITLE8=Happy New Year
TTITLE9=Cemetery Blues
TTITLE10=Shine On Moon
TTITLE11=Lightnin's Boogie
TTITLE12=Lonesome In Your Home
TTITLE13=Remember Me
TTITLE14=Sittin' Down Thinking
TTITLE15=Lightnin's Special
TTITLE16=Don't Think 'Cause Your Pretty
TTITLE17=Life I Used to Live
TTITLE18=My Baby's Gone
TTITLE19=Sick Feeling Blues
TTITLE20=Movin' On Out Boogie
TTITLE21=Evil Hearted Woman
TTITLE22=Blues for My Cookie
TTITLE23=Had a Gal Called Sal
TTITLE24=Nothin' But the Blues
TTITLE25=My Little Kewpie Doll
TTITLE26=Moanin' Blues
EXTD=upc =805520-015929\nrecorded in Houston, TX, USA in 1952-1955
EXTT0=
EXTT1=
EXTT2=
EXTT3=
EXTT4=
EXTT5=
EXTT6=
EXTT7=
EXTT8=
EXTT9=
EXTT10=
EXTT11=
EXTT12=
EXTT13=
EXTT14=
EXTT15=
EXTT16=
EXTT17=
EXTT18=
EXTT19=
EXTT20=
EXTT21=
EXTT22=
EXTT23=
EXTT24=
EXTT25=
EXTT26=
PLAYORDER=
